<svg width="30" height="44" viewBox="0 0 30 44" fill="none" xmlns="http://www.w3.org/2000/svg">
<path d="M25.3509 13.79C25.4682 13.9085 25.6075 14.0026 25.761 14.0667C25.9146 14.1309 26.0791 14.1639 26.2454 14.1639C26.4116 14.1639 26.5762 14.1309 26.7297 14.0667C26.8832 14.0026 27.0226 13.9085 27.1399 13.79L29.6246 11.19C29.7488 11.0595 29.8459 10.9053 29.9103 10.7366C29.9746 10.5679 30.0049 10.388 29.9993 10.2074C29.9938 10.0268 29.9525 9.84909 29.8779 9.68471C29.8033 9.52032 29.697 9.37254 29.565 9.24999C27.6033 7.53589 25.323 6.23066 22.8562 5.40999L23.6414 1.61C23.6822 1.42009 23.6811 1.2235 23.6383 1.03405C23.5954 0.844597 23.5119 0.666889 23.3935 0.513422C23.275 0.359956 23.1246 0.234458 22.9528 0.145756C22.781 0.0570546 22.592 0.00730264 22.399 0L17.5886 0C17.2879 0.00324447 16.9975 0.110309 16.7659 0.303272C16.5343 0.496235 16.3756 0.763384 16.3164 1.06L15.6207 4.44C9.22001 4.76999 3.79336 7.99999 3.79336 14.74C3.79336 20.54 8.27581 23.03 13.0167 24.74C17.4991 26.46 19.8745 27.1 19.8745 29.52C19.8745 31.94 17.5091 33.47 14.0106 33.47C12.3262 33.4957 10.6536 33.1835 9.09052 32.5516C7.5274 31.9198 6.10505 30.981 4.90652 29.79C4.78651 29.669 4.64398 29.5731 4.48708 29.5076C4.33018 29.4421 4.16199 29.4084 3.99214 29.4084C3.82228 29.4084 3.65409 29.4421 3.49719 29.5076C3.34029 29.5731 3.19776 29.669 3.07776 29.79L0.394249 32.49C0.141769 32.7449 0 33.0901 0 33.45C0 33.8098 0.141769 34.155 0.394249 34.41C2.55637 36.5217 5.22294 38.0371 8.13667 38.81L7.40119 42.38C7.35846 42.5722 7.35869 42.7715 7.40188 42.9636C7.44506 43.1557 7.53011 43.3358 7.65088 43.4908C7.77166 43.6458 7.92514 43.7719 8.10025 43.8599C8.27536 43.948 8.46771 43.9958 8.66343 44H13.4838C13.7793 44.0025 14.0671 43.9054 14.3013 43.7242C14.5355 43.5429 14.7026 43.2879 14.7759 43L15.4716 39.61C23.1742 39.09 27.8654 34.82 27.8654 28.61C27.8654 22.87 23.1941 20.45 17.5289 18.48C14.2889 17.27 11.4861 16.48 11.4861 13.95C11.4861 11.42 14.1 10.57 16.7239 10.57C19.9043 10.5918 22.9718 11.759 25.3707 13.86L25.3509 13.79Z" fill="#00D54B"/>
</svg>
