<svg width="64" height="36" viewBox="0 0 64 36" fill="none" xmlns="http://www.w3.org/2000/svg">
<g clip-path="url(#clip0_114_3)">
<path d="M62.1478 18.7921C61.6109 20.4632 60.583 21.8842 58.3348 24.3653L57.0026 25.8289C56.4886 26.3973 56.2187 26.7241 55.9517 27.0851C54.8032 28.651 50.1317 31.0895 46.448 32.448C45.279 32.8591 44.0762 33.1691 42.8532 33.3745L41.0644 33.6871L36.4704 34.4686C33.8634 34.9347 31.5032 34.8807 27.762 34.4289L24.1184 33.9684C23.7624 33.9287 23.5155 33.9088 23.168 33.8803H23.0733C21.3247 33.7468 19.981 33.3375 17.7615 32.3769L16.145 31.6693C15.4645 31.3851 14.8989 31.1577 14.3505 30.9815L14.0634 30.8962C11.3156 30.072 5.599 25.8857 3.84181 23.4786L3.62934 23.1773C2.71055 21.8359 2.09611 20.9037 1.51038 18.9853V18.1896L1.7975 17.2659C2.35452 15.6715 3.32786 14.2875 5.39802 11.9599L7.1064 10.0671C7.54282 9.57541 7.78688 9.277 8.03093 8.93027C9.17942 7.35863 13.8509 4.90881 17.5318 3.54749C18.5793 3.17645 19.6558 2.89129 20.7505 2.69488L21.7353 2.51015L27.5065 1.5325C30.2226 1.04367 32.6747 1.12325 36.6944 1.63481L39.8298 2.03553C40.1858 2.07532 40.4327 2.09522 40.7801 2.12364H40.8749C42.5201 2.24869 43.8036 2.62099 45.7991 3.46791L47.8089 4.34325C48.4827 4.64008 49.1729 4.89911 49.8762 5.11912C52.6211 5.94899 58.3377 10.1495 60.092 12.5652L60.2959 12.875C61.2118 14.2221 61.6769 15.3078 62.2655 17.2403L62.4522 17.8741L62.1478 18.7921Z" fill="white"/>
<path d="M23.0474 2.44233L23.6216 2.17803C26.1902 0.806183 29.0641 0.0902791 31.9827 0.0948263C34.1206 0.0945421 36.2407 0.479636 38.2391 1.23163L38.6066 1.31974C40.7945 1.80572 43.1058 3.97418 44.7079 5.29856C45.8392 6.23074 46.9188 8.09227 47.6682 9.56159C47.76 9.73779 47.8519 9.91968 47.9381 10.1016C48.1304 10.4938 48.2912 10.8405 48.4147 11.1048C48.7139 11.784 48.943 12.4917 49.098 13.2164C49.3447 14.1637 49.5109 15.1294 49.5948 16.1039C49.6599 16.6041 49.724 17.1356 49.7871 17.6983C50.1374 20.8416 48.3257 24.4111 47.8318 25.6701C47.338 26.9292 45.0783 29.6746 44.7194 30.1804C44.3605 30.6863 40.5877 33.1276 40.2403 33.4345C39.8929 33.7415 36.5766 34.8015 36.0454 34.9522C35.5143 35.1028 31.2534 35.4353 30.6447 35.4353C30.036 35.4353 25.4104 34.0399 25.0084 33.8438C24.6065 33.6477 22.0051 32.2324 21.4768 31.9737C20.9485 31.7151 18.663 29.3733 18.3931 29.0436C18.1232 28.7139 15.7918 25.2211 15.5793 24.7806C15.3669 24.3401 14.7754 22.3734 14.5399 21.8647C14.3045 21.356 14.1638 18.1189 14.1638 16.9849C14.1765 15.9084 14.3496 14.8398 14.6778 13.8132C14.9792 12.8185 15.3439 10.8973 16.6245 8.81698C17.0899 8.08175 17.607 7.38006 18.1721 6.71673C18.6294 6.14861 19.1213 5.60863 19.645 5.09962C20.7992 3.92587 22.0339 2.89706 23.0474 2.44233Z" fill="#00D54B"/>
<path d="M40.7858 21.1879L40.6911 21.3982C40.5517 21.7206 40.3935 22.0347 40.2173 22.3389C40.0623 22.6231 39.9302 22.9073 39.7838 23.1688C39.2698 24.2288 37.8658 25.1582 36.9872 25.8118C36.1086 26.4655 34.2624 26.8606 33.5159 27.0112C32.7694 27.1618 31.5921 27.1107 29.9154 26.9174C28.2386 26.7241 26.5905 25.3713 25.9933 24.9706C25.396 24.5699 24.2332 23.092 24.0064 22.8448C23.7795 22.5975 22.9699 20.3836 22.8435 20.179C22.7172 19.9743 22.5564 18.1441 22.5564 17.8542C22.5564 17.5643 22.8751 15.3532 22.9469 15.0406C23.2048 14.4616 23.5002 13.8996 23.8312 13.3581C23.903 13.2246 23.9805 13.091 24.058 12.9602L24.1356 12.8409C24.2877 12.5851 24.4055 12.3975 24.4457 12.3492L24.595 12.1787C24.8772 11.8058 25.1882 11.4552 25.5252 11.13C25.6688 10.968 25.7865 10.8458 25.8382 10.7691C26.1513 10.5028 26.4887 10.2659 26.846 10.0614C27.7837 9.43738 28.8273 8.98585 29.9268 8.72848C30.05 8.68283 30.1755 8.64393 30.303 8.61196C30.5614 8.56365 31.6524 8.48691 31.9453 8.43007C32.2866 8.42358 32.6275 8.45503 32.9617 8.52386C33.3744 8.56168 33.784 8.62719 34.1877 8.71996C35.6536 9.05071 37.0173 9.72631 38.1634 10.6895C39.3095 11.6528 40.2041 12.8752 40.7715 14.2534C40.8891 14.4927 40.9852 14.7419 41.0586 14.998C41.4774 16.3483 41.5757 17.776 41.3457 19.1701C41.3457 19.2241 41.3457 19.2809 41.3256 19.3349C41.232 19.9741 41.0504 20.5975 40.7858 21.1879Z" fill="black"/>
<path d="M27.2307 9.75445C27.4962 9.86724 27.7438 10.0175 27.9657 10.2006L28.0519 10.2774C28.3226 10.5194 28.5464 10.8084 28.7123 11.13C28.7961 11.2713 28.8599 11.4233 28.9018 11.5819V11.6472C29.0383 12.1234 29.0502 12.6261 28.9362 13.108L28.9707 12.9205C28.9613 12.999 28.9469 13.0768 28.9276 13.1535C28.8443 13.4821 28.7055 13.7944 28.517 14.0772C28.5064 14.0936 28.4968 14.1107 28.4883 14.1283C28.3275 14.4608 27.8854 14.7507 27.6097 14.961C27.4617 15.0577 27.3001 15.1324 27.1302 15.1827C26.5697 15.403 25.9547 15.4486 25.3673 15.3134L25.2811 15.2907L25.3816 15.3078C25.2142 15.2848 25.0514 15.2358 24.8993 15.1628C24.3465 14.9372 23.8752 14.5519 23.5469 14.0573C23.5395 14.0459 23.5308 14.0355 23.5211 14.026C23.502 13.9983 23.4856 13.9688 23.4723 13.9379C23.3318 13.7028 23.2255 13.4492 23.1564 13.1848C23.1449 13.1556 23.1371 13.125 23.1335 13.0938C23.0344 12.6626 23.0344 12.2149 23.1335 11.7837L23.1679 11.6501L23.1852 11.5677C23.2049 11.536 23.2291 11.5073 23.2569 11.4824C23.4269 11.0029 23.7193 10.575 24.1057 10.2404C24.4921 9.90577 24.9593 9.67571 25.462 9.57256L25.5338 9.55267L25.7865 9.52709H25.8611C25.9444 9.52709 26.0162 9.51288 26.0506 9.50435C26.1789 9.50501 26.3069 9.51834 26.4325 9.54414C26.5293 9.55587 26.6252 9.57391 26.7196 9.59814H26.7656L26.8517 9.61519C26.9707 9.64347 27.0862 9.68444 27.1963 9.7374L27.2307 9.75445Z" fill="white"/>
<path d="M0 18.1895V18.5647C0.470881 20.3921 0.674738 21.3726 1.33799 22.3417C3.60339 25.6584 5.62761 28.0513 7.87291 29.4041L10.7929 31.0639L11.4849 31.4447C13.8106 32.7179 15.7171 33.5762 17.569 34.102C18.1561 34.271 18.7536 34.402 19.3578 34.4942L20.133 34.6164L22.7717 35.0768C27.2623 35.8669 30.0933 36.1454 33.556 35.9294C38.3711 35.6253 42.5832 34.7102 47.7887 33.0874C51.3117 31.9932 56.9163 28.1196 59.5837 25.1894C60.5226 24.1578 61.2806 23.399 61.8807 22.2735L62.2654 21.5602C62.6272 20.8241 63.5288 19.0791 63.4828 19.1871C63.5948 18.9313 63.6781 18.9256 63.77 18.6784L63.9968 18.1867L63.9135 17.8627C63.4398 16.0296 62.9 14.674 62.2367 13.702C59.9742 10.3768 57.95 7.9725 55.7076 6.61401L53.5053 5.35784C53.0086 5.07364 52.5262 4.78944 52.2104 4.62744L52.1013 4.56776C49.7785 3.29169 47.872 2.42772 46.0229 1.90195C45.4305 1.73188 44.8271 1.60179 44.2169 1.51259L43.4417 1.38754L40.8059 0.927134C36.3296 0.134211 33.4986 -0.147149 30.0388 0.0716868C25.2266 0.375783 21.0174 1.29375 15.8118 2.9137C12.2917 4.01641 6.68996 7.90713 4.01972 10.8486C3.02534 11.942 2.19298 13.1697 1.54759 14.4949L1.43274 14.7365C1.05948 15.5493 0.462268 17.0328 0.442169 17.0868C0.330191 17.3369 0.226827 17.5956 0.132076 17.8428L0 18.1895ZM61.9553 18.7921C61.4184 20.4632 60.3905 21.8842 58.1424 24.3653L56.8101 25.8289C56.439 26.2303 56.0892 26.6505 55.7621 27.0879C54.6136 28.6539 49.9393 31.0923 46.2555 32.4508C45.0862 32.8609 43.8835 33.1709 42.6607 33.3773L40.8719 33.6871L36.278 34.4715C33.6738 34.9376 31.3136 34.8836 27.5695 34.4317L23.9346 33.9713C23.5785 33.9286 23.3345 33.9087 22.987 33.8803H22.8894C21.1408 33.7467 19.8 33.3347 17.5805 32.3741L15.964 31.6664C15.2807 31.3822 14.715 31.1577 14.1666 30.9815L13.8939 30.8962C11.149 30.0692 5.42949 25.8829 3.6723 23.4757L3.4627 23.1915C2.54391 21.8472 1.92659 20.9179 1.34086 18.9967V18.1895L1.62799 17.2659C2.14481 15.6658 3.11528 14.2818 5.18544 11.9542L6.89382 10.0642C7.33024 9.57255 7.57717 9.2713 7.82122 8.92741C8.96971 7.35578 13.6383 4.9088 17.3192 3.54463C18.3671 3.17491 19.4435 2.88978 20.5379 2.69203L21.5342 2.52151L27.3054 1.53248C30.0244 1.0465 32.4736 1.12608 36.4933 1.6348L39.6516 2.03552C40.0077 2.07531 40.2517 2.09805 40.5992 2.12362H40.6968C42.3391 2.25151 43.6254 2.62382 45.6209 3.47074L47.6308 4.34608C48.3042 4.64302 48.9945 4.90112 49.6981 5.11911C52.443 5.94898 58.1567 10.1495 59.911 12.568L60.1235 12.8693C61.0423 14.2164 61.5074 15.2992 62.0932 17.2318L62.2798 17.8684L61.9553 18.7921Z" fill="black"/>
</g>
<defs>
<clipPath id="clip0_114_3">
<rect width="63.9968" height="36" fill="white"/>
</clipPath>
</defs>
</svg>
