<svg width="20" height="23" viewBox="0 0 20 23" fill="none" xmlns="http://www.w3.org/2000/svg">
<path fill-rule="evenodd" clip-rule="evenodd" d="M13.2715 3.67846C14.1091 2.68438 14.5293 1.61039 14.5293 0.460127V0.460113C14.5293 0.307551 14.5222 0.153769 14.5052 0C13.9217 0.0302682 13.3012 0.20705 12.6453 0.526711C11.988 0.851218 11.446 1.258 11.0198 1.74724C10.1661 2.71349 9.68539 3.89525 9.68539 4.9995C9.68539 5.15212 9.69518 5.29735 9.71208 5.43535C11.0379 5.5431 12.2606 4.86022 13.2715 3.67846ZM17.7308 20.1472C18.2077 19.4671 18.6195 18.7275 18.9673 17.9239C19.1107 17.5832 19.2456 17.2283 19.3733 16.8577C18.7841 16.6107 18.2546 16.2629 17.7804 15.8129C16.7341 14.8432 16.2017 13.622 16.1861 12.1544C16.1691 10.2703 17.0251 8.80161 18.7557 7.75302C17.7889 6.37875 16.3352 5.61594 14.4001 5.45977C13.6859 5.39914 12.8143 5.55304 11.7814 5.92472C10.6893 6.3255 10.045 6.52653 9.85489 6.52653C9.60063 6.52653 9.02068 6.35461 8.11746 6.01558C7.21168 5.67769 6.48281 5.50577 5.92699 5.50577C4.91119 5.52266 3.96794 5.78673 3.09496 6.30492C2.22198 6.82312 1.52448 7.52899 1.00018 8.42383C0.333063 9.53788 0 10.8673 0 12.4087C0 13.7543 0.247029 15.1441 0.73981 16.5795C1.19994 17.9084 1.78727 19.0739 2.50166 20.0791C3.16751 21.0204 3.72333 21.6848 4.16769 22.0723C4.86392 22.7197 5.56142 23.0278 6.26119 22.998C6.72132 22.9824 7.32313 22.8248 8.07019 22.5224C8.8161 22.2214 9.51345 22.0723 10.1637 22.0723C10.7837 22.0723 11.4617 22.2214 12.1995 22.5224C12.9349 22.8248 13.5667 22.9738 14.0906 22.9738C14.8204 22.9568 15.5018 22.6572 16.1378 22.0723C16.5482 21.7159 17.0805 21.0743 17.7308 20.1472Z" fill="#00D54B"/>
</svg>
