<svg width="20" height="22" viewBox="0 0 20 22" fill="none" xmlns="http://www.w3.org/2000/svg">
<path fill-rule="evenodd" clip-rule="evenodd" d="M0.519096 21.513L10.0927 11.9665L13.4673 15.331L2.08637 21.6411C1.65364 21.8811 1.12364 21.8775 0.693634 21.6311L0.519096 21.513ZM9.1273 11.0038L0 20.1048V1.90288L9.1273 11.0038ZM14.831 7.24289L19.29 9.71471C19.7282 9.95835 20 10.4147 20 10.9093C20 11.4038 19.7282 11.8601 19.29 12.1038L14.7092 14.6429L11.0591 11.0038L14.831 7.24289ZM0.418186 0.393787C0.500006 0.314695 0.591819 0.245605 0.693634 0.187423C1.12364 -0.0589412 1.65364 -0.0625784 2.08637 0.177423L13.5891 6.55471L10.0927 10.041L0.418186 0.393787Z" fill="#00D54B"/>
</svg>
